<svg width="169" height="40" viewBox="0 0 169 40" fill="none" xmlns="http://www.w3.org/2000/svg">
<path d="M7.74913 13.4736L12.7223 10.5937L9.94637 5.76839H36.0536L23.0042 28.4715L20.2282 23.6378L15.2551 26.5262L23.0042 40L46 0H0L7.74913 13.4736Z" fill="#4F46E5"/>
<path d="M48.272 27.752L47.6 29H53.232L53.456 28.584L58.032 20.296L55.216 15.24L48.272 27.752ZM71.376 27.752L62.416 11.592L60.56 8.264L60.368 7.816H59.28L59.056 8.264L57.232 11.592L57.008 12.008L59.824 17.096L59.888 17.224L61.968 20.968L66.192 28.584L66.416 29H72.048L71.376 27.752ZM91.3873 27.72L89.5953 25.928C89.7553 25.768 89.8833 25.64 90.0113 25.48C91.7073 23.528 92.6353 21 92.6353 18.408C92.6353 15.56 91.5153 12.84 89.4993 10.824C87.4513 8.776 84.7633 7.656 81.8833 7.656C79.0033 7.656 76.3153 8.776 74.2673 10.824C72.2513 12.84 71.1313 15.56 71.1313 18.408C71.1313 21.288 72.2513 24.008 74.2673 26.024C75.4513 27.208 77.5953 28.456 79.3873 29H92.6673L91.3873 27.72ZM86.6833 22.344C86.4272 22.664 86.1073 22.952 85.7873 23.208C85.4673 23.496 85.1153 23.72 84.7313 23.912C84.3153 24.136 83.8993 24.296 83.4513 24.424C82.9393 24.552 82.4273 24.616 81.8833 24.616C78.4593 24.616 75.6753 21.832 75.6753 18.408C75.6753 15.016 78.4593 12.232 81.8833 12.232C85.3073 12.232 88.0913 15.016 88.0913 18.408C88.0913 19.848 87.5793 21.224 86.6833 22.344ZM110.441 7.88V19.464C110.441 22.184 108.265 24.456 105.609 24.52C105.545 24.52 105.481 24.52 105.417 24.52C105.353 24.52 105.289 24.52 105.225 24.52C102.569 24.456 100.393 22.152 100.393 19.464V7.88H95.9125V21.064C95.9125 22.792 96.5205 24.392 97.6405 25.608C98.0885 26.088 98.5365 26.504 99.0485 26.888C100.873 28.264 103.081 29 105.417 29C107.753 29 109.929 28.264 111.785 26.888C112.297 26.504 112.745 26.088 113.161 25.64C114.312 24.424 114.921 22.792 114.921 21.096V7.88H110.441ZM118.163 7.848V29H122.643V7.848H118.163ZM145.498 27.72L139.45 17.8C139.482 17.8 139.514 17.768 139.546 17.736L139.578 17.704C139.61 17.704 139.642 17.672 139.642 17.64C139.706 17.608 139.738 17.576 139.802 17.544C139.834 17.512 139.898 17.448 139.962 17.416C139.962 17.384 139.994 17.384 139.994 17.384C140.026 17.352 140.09 17.288 140.122 17.256C140.25 17.128 140.378 17.032 140.538 16.872C141.978 15.432 143.002 13.64 143.418 11.656C143.61 10.888 143.674 10.12 143.674 9.352C143.674 9.096 143.674 8.84 143.642 8.616L143.61 7.816H125.85V12.296H135.45H138.426C138.138 12.808 137.786 13.288 137.37 13.672C136.826 14.216 136.218 14.632 135.514 14.952C135.482 14.952 135.482 14.952 135.45 14.984C134.714 15.272 133.914 15.432 133.114 15.432H125.85V29H130.33V19.944H133.114C133.178 19.944 133.242 19.912 133.306 19.912H133.338H133.37H133.434C133.498 19.912 133.53 19.912 133.594 19.912C133.626 19.912 133.658 19.912 133.658 19.912C133.722 19.912 133.786 19.912 133.85 19.912H133.914L133.946 19.88C134.01 19.88 134.074 19.88 134.17 19.88C134.234 19.88 134.298 19.848 134.394 19.848C134.426 19.848 134.458 19.848 134.49 19.848C134.554 19.816 134.618 19.816 134.682 19.816C134.714 19.816 134.746 19.816 134.778 19.784C134.81 19.784 134.874 19.784 134.938 19.784C135.066 19.752 135.194 19.72 135.322 19.688L140.762 28.616L141.018 29H146.266L145.498 27.72ZM148.1 7.88V8.712V12.36H166.98V7.88H148.1ZM152.58 19.976H165.092V15.496H152.58L148.1 15.464V24.52V25.352V29H166.98V24.52H152.58V19.976Z" fill="#111827"/>
</svg>
